<svg xmlns="http://www.w3.org/2000/svg" width="2400" height="1350" viewBox="0 0 2400 1350">
<defs>
  <marker id="arrow" viewBox="0 0 10 10" refX="9.2" refY="5" markerWidth="8" markerHeight="8" orient="auto-start-reverse">
    <path d="M 0 0 L 10 5 L 0 10 z" fill="#334155"/>
  </marker>
  <marker id="arrow-blue" viewBox="0 0 10 10" refX="9.2" refY="5" markerWidth="8" markerHeight="8" orient="auto-start-reverse">
    <path d="M 0 0 L 10 5 L 0 10 z" fill="#2563eb"/>
  </marker>
  <marker id="arrow-green" viewBox="0 0 10 10" refX="9.2" refY="5" markerWidth="8" markerHeight="8" orient="auto-start-reverse">
    <path d="M 0 0 L 10 5 L 0 10 z" fill="#16a34a"/>
  </marker>
  <marker id="arrow-orange" viewBox="0 0 10 10" refX="9.2" refY="5" markerWidth="8" markerHeight="8" orient="auto-start-reverse">
    <path d="M 0 0 L 10 5 L 0 10 z" fill="#ea580c"/>
  </marker>
  <filter id="shadow" x="-20%" y="-20%" width="140%" height="140%">
    <feDropShadow dx="0" dy="6" stdDeviation="8" flood-color="#0f172a" flood-opacity="0.18"/>
  </filter>
  <linearGradient id="bg" x1="0" x2="1" y1="0" y2="1">
    <stop offset="0%" stop-color="#f8fafc"/>
    <stop offset="100%" stop-color="#eef2ff"/>
  </linearGradient>
  <style>
    .font { font-family: 'Noto Sans CJK KR','NanumGothic','Noto Sans','Arial',sans-serif; }
    .title { font-size: 42px; font-weight: 800; fill: #0f172a; }
    .subtitle { font-size: 20px; fill: #475569; }
    .small { font-size: 16px; fill: #475569; }
    .label { font-size: 20px; font-weight: 700; fill: #0f172a; }
    .label2 { font-size: 17px; fill: #334155; }
    .server-title { font-size: 24px; font-weight: 800; fill: #0f172a; }
    .box-title { font-size: 19px; font-weight: 800; fill: #0f172a; }
    .box-text { font-size: 15px; fill: #334155; }
  </style>
</defs>
<rect x="0" y="0" width="2400" height="1350" fill="url(#bg)"/>

<text x="80" y="70" class="font title" text-anchor="start"><tspan x="80" dy="0">ClueRoom 평상시 운영 인프라 아키텍처</tspan></text>
<text x="80" y="105" class="font subtitle" text-anchor="start"><tspan x="80" dy="0">저비용 Lightsail 기반 MVP 운영 구조 · Blue-Green 배포 · data/ops 분리 · Loki/Grafana/n8n 관측 · S3 백업</tspan></text>
<rect x="80" y="420" width="260" height="120" rx="18" fill="#ffffff" fill-opacity="1" stroke="#d8e0ee" stroke-width="1.5" filter="url(#shadow)"/>
<circle cx="116" cy="456" r="22" fill="#111827"/>
<text x="116" y="463" class="font label" text-anchor="middle" fill="#fff"><tspan x="116" dy="0">UI</tspan></text>
<text x="154" y="450" class="font box-title" text-anchor="start"><tspan x="154" dy="0">Client / Flutter·Web</tspan></text>
<text x="154" y="475" class="font box-text" text-anchor="start"><tspan x="154" dy="0">사용자 요청</tspan><tspan x="154" dy="18">api.clueroom.xyz</tspan></text>
<rect x="80" y="600" width="260" height="120" rx="18" fill="#ffffff" fill-opacity="1" stroke="#d8e0ee" stroke-width="1.5" filter="url(#shadow)"/>
<circle cx="116" cy="636" r="22" fill="#3B82F6"/>
<text x="116" y="643" class="font label" text-anchor="middle" fill="#fff"><tspan x="116" dy="0">AI</tspan></text>
<text x="154" y="630" class="font box-title" text-anchor="start"><tspan x="154" dy="0">External AI</tspan></text>
<text x="154" y="655" class="font box-text" text-anchor="start"><tspan x="154" dy="0">DeepSeek API</tspan><tspan x="154" dy="18">심문/추리 AI 호출</tspan></text>
<rect x="420" y="190" width="760" height="880" rx="28" fill="#ffffff" fill-opacity="1" stroke="#2563eb" stroke-width="3" filter="url(#shadow)"/>
<rect x="420" y="190" width="760" height="58" rx="28" fill="#2563eb" fill-opacity="0.16" stroke="none"/>
<text x="444" y="227" class="font server-title" text-anchor="start"><tspan x="444" dy="0">clueroom-api-prod-01</tspan></text>
<text x="444" y="278" class="font small" text-anchor="start"><tspan x="444" dy="0">Public API entrypoint · Nginx · Spring</tspan><tspan x="444" dy="20">Boot Blue/Green · Prometheus/Grafana ·</tspan><tspan x="444" dy="20">Alloy</tspan></text>
<rect x="470" y="330" width="290" height="126" rx="18" fill="#ffffff" fill-opacity="1" stroke="#d8e0ee" stroke-width="1.5" filter="url(#shadow)"/>
<polygon points="526.8,378.0 506.0,390.0 485.2,378.0 485.2,354.0 506.0,342.0 526.8,354.0" fill="#009639"/>
<text x="506" y="373" class="font label" text-anchor="middle" fill="#fff"><tspan x="506" dy="0">N</tspan></text>
<text x="544" y="360" class="font box-title" text-anchor="start"><tspan x="544" dy="0">Nginx</tspan></text>
<text x="544" y="385" class="font box-text" text-anchor="start"><tspan x="544" dy="0">TLS termination</tspan><tspan x="544" dy="18">Rate Limit · CN Block</tspan><tspan x="544" dy="18">Manual blocklist</tspan></text>
<rect x="820" y="300" width="290" height="110" rx="18" fill="#ffffff" fill-opacity="1" stroke="#d8e0ee" stroke-width="1.5" filter="url(#shadow)"/>
<circle cx="856" cy="336" r="22" fill="#6DB33F"/>
<text x="856" y="343" class="font label" text-anchor="middle" fill="#fff"><tspan x="856" dy="0">SB</tspan></text>
<text x="894" y="330" class="font box-title" text-anchor="start"><tspan x="894" dy="0">app-green ACTIVE</tspan></text>
<text x="894" y="355" class="font box-text" text-anchor="start"><tspan x="894" dy="0">Spring Boot in Docker</tspan><tspan x="894" dy="18">127.0.0.1:8082</tspan></text>
<rect x="820" y="440" width="290" height="110" rx="18" fill="#ffffff" fill-opacity="1" stroke="#d8e0ee" stroke-width="1.5" filter="url(#shadow)"/>
<circle cx="856" cy="476" r="22" fill="#6DB33F"/>
<text x="856" y="483" class="font label" text-anchor="middle" fill="#fff"><tspan x="856" dy="0">SB</tspan></text>
<text x="894" y="470" class="font box-title" text-anchor="start"><tspan x="894" dy="0">app-blue STANDBY</tspan></text>
<text x="894" y="495" class="font box-text" text-anchor="start"><tspan x="894" dy="0">Spring Boot in Docker</tspan><tspan x="894" dy="18">127.0.0.1:8081</tspan></text>
<rect x="470" y="565" width="290" height="120" rx="18" fill="#ffffff" fill-opacity="1" stroke="#d8e0ee" stroke-width="1.5" filter="url(#shadow)"/>
<circle cx="506" cy="601" r="22" fill="#E6522C"/>
<text x="506" y="608" class="font label" text-anchor="middle" fill="#fff"><tspan x="506" dy="0">P</tspan></text>
<text x="544" y="595" class="font box-title" text-anchor="start"><tspan x="544" dy="0">Prometheus</tspan></text>
<text x="544" y="620" class="font box-text" text-anchor="start"><tspan x="544" dy="0">App/JVM/HTTP/AI metrics</tspan><tspan x="544" dy="18">127.0.0.1:9090</tspan></text>
<rect x="820" y="585" width="290" height="120" rx="18" fill="#ffffff" fill-opacity="1" stroke="#d8e0ee" stroke-width="1.5" filter="url(#shadow)"/>
<circle cx="856" cy="621" r="22" fill="#F46800"/>
<text x="856" y="628" class="font label" text-anchor="middle" fill="#fff"><tspan x="856" dy="0">G</tspan></text>
<text x="894" y="615" class="font box-title" text-anchor="start"><tspan x="894" dy="0">Grafana</tspan></text>
<text x="894" y="640" class="font box-text" text-anchor="start"><tspan x="894" dy="0">MVP operations dashboard</tspan><tspan x="894" dy="18">monitor.clueroom.xyz</tspan></text>
<rect x="470" y="745" width="290" height="120" rx="18" fill="#ffffff" fill-opacity="1" stroke="#d8e0ee" stroke-width="1.5" filter="url(#shadow)"/>
<circle cx="506" cy="781" r="22" fill="#f97316"/>
<text x="506" y="788" class="font label" text-anchor="middle" fill="#fff"><tspan x="506" dy="0">A</tspan></text>
<text x="544" y="775" class="font box-title" text-anchor="start"><tspan x="544" dy="0">Grafana Alloy</tspan></text>
<text x="544" y="800" class="font box-text" text-anchor="start"><tspan x="544" dy="0">Nginx/App/heartbeat logs</tspan><tspan x="544" dy="18">→ ops Loki</tspan></text>
<rect x="820" y="755" width="290" height="120" rx="18" fill="#ffffff" fill-opacity="1" stroke="#d8e0ee" stroke-width="1.5" filter="url(#shadow)"/>
<circle cx="856" cy="791" r="22" fill="#64748b"/>
<text x="856" y="798" class="font label" text-anchor="middle" fill="#fff"><tspan x="856" dy="0">R</tspan></text>
<text x="894" y="785" class="font box-title" text-anchor="start"><tspan x="894" dy="0">Local MySQL/Redis</tspan></text>
<text x="894" y="810" class="font box-text" text-anchor="start"><tspan x="894" dy="0">Stopped or rollback copy</tspan><tspan x="894" dy="18">not source of truth</tspan></text>
<rect x="1280" y="250" width="480" height="540" rx="28" fill="#ffffff" fill-opacity="1" stroke="#16a34a" stroke-width="3" filter="url(#shadow)"/>
<rect x="1280" y="250" width="480" height="58" rx="28" fill="#16a34a" fill-opacity="0.16" stroke="none"/>
<text x="1304" y="287" class="font server-title" text-anchor="start"><tspan x="1304" dy="0">clueroom-data-01</tspan></text>
<text x="1304" y="338" class="font small" text-anchor="start"><tspan x="1304" dy="0">운영 source of truth · MySQL/Redis · local</tspan><tspan x="1304" dy="20">backup · S3 upload health</tspan></text>
<rect x="1330" y="380" width="190" height="105" rx="18" fill="#ffffff" fill-opacity="1" stroke="#d8e0ee" stroke-width="1.5" filter="url(#shadow)"/>
<circle cx="1366" cy="416" r="22" fill="#4479A1"/>
<text x="1366" y="423" class="font label" text-anchor="middle" fill="#fff"><tspan x="1366" dy="0">SQL</tspan></text>
<text x="1404" y="410" class="font box-title" text-anchor="start"><tspan x="1404" dy="0">MySQL 8.4</tspan></text>
<text x="1404" y="435" class="font box-text" text-anchor="start"><tspan x="1404" dy="0">운영 DB</tspan><tspan x="1404" dy="18">startup schema</tspan></text>
<rect x="1530" y="380" width="190" height="105" rx="18" fill="#ffffff" fill-opacity="1" stroke="#d8e0ee" stroke-width="1.5" filter="url(#shadow)"/>
<rect x="1547" y="396" width="38" height="14" rx="3" fill="#DC382D"/>
<rect x="1550" y="412" width="38" height="14" rx="3" fill="#DC382D" opacity="0.88"/>
<rect x="1553" y="428" width="38" height="14" rx="3" fill="#DC382D" opacity="0.76"/>
<text x="1604" y="410" class="font box-title" text-anchor="start"><tspan x="1604" dy="0">Redis 8</tspan></text>
<text x="1604" y="435" class="font box-text" text-anchor="start"><tspan x="1604" dy="0">운영 cache/session</tspan><tspan x="1604" dy="18">PONG health</tspan></text>
<rect x="1330" y="535" width="390" height="110" rx="18" fill="#ffffff" fill-opacity="1" stroke="#d8e0ee" stroke-width="1.5" filter="url(#shadow)"/>
<circle cx="1366" cy="571" r="22" fill="#22c55e"/>
<text x="1366" y="578" class="font label" text-anchor="middle" fill="#fff"><tspan x="1366" dy="0">DH</tspan></text>
<text x="1404" y="565" class="font box-title" text-anchor="start"><tspan x="1404" dy="0">DATA_HEALTH</tspan></text>
<text x="1404" y="590" class="font box-text" text-anchor="start"><tspan x="1404" dy="0">mysql=OK redis=OK disk=OK</tspan><tspan x="1404" dy="18">backup_status=OK</tspan></text>
<rect x="1330" y="675" width="390" height="110" rx="18" fill="#ffffff" fill-opacity="1" stroke="#d8e0ee" stroke-width="1.5" filter="url(#shadow)"/>
<path d="M 1344 696 h44 l-6 36 h-32 z" fill="#FF9900"/>
<path d="M 1348 696 q18 -12 36 0" fill="none" stroke="#FF9900" stroke-width="8"/>
<text x="1366" y="718" class="font label" text-anchor="middle" fill="#fff"><tspan x="1366" dy="0">BK</tspan></text>
<text x="1404" y="705" class="font box-title" text-anchor="start"><tspan x="1404" dy="0">Backup scripts</tspan></text>
<text x="1404" y="730" class="font box-text" text-anchor="start"><tspan x="1404" dy="0">backup-mysql.sh</tspan><tspan x="1404" dy="18">upload-mysql-backup-s3.sh</tspan></text>
<rect x="1900" y="520" width="360" height="135" rx="18" fill="#ffffff" fill-opacity="1" stroke="#d8e0ee" stroke-width="1.5" filter="url(#shadow)"/>
<path d="M 1914 541 h44 l-6 36 h-32 z" fill="#FF9900"/>
<path d="M 1918 541 q18 -12 36 0" fill="none" stroke="#FF9900" stroke-width="8"/>
<text x="1936" y="563" class="font label" text-anchor="middle" fill="#fff"><tspan x="1936" dy="0">S3</tspan></text>
<text x="1974" y="550" class="font box-title" text-anchor="start"><tspan x="1974" dy="0">S3 DB Backup Bucket</tspan></text>
<text x="1974" y="575" class="font box-text" text-anchor="start"><tspan x="1974" dy="0">mysql/prod/daily/YYYY/MM/DD</tspan><tspan x="1974" dy="18">.sql.gz + .sha256</tspan><tspan x="1974" dy="18">30d lifecycle · SSE-S3</tspan></text>
<rect x="1280" y="830" width="480" height="360" rx="28" fill="#ffffff" fill-opacity="1" stroke="#a855f7" stroke-width="3" filter="url(#shadow)"/>
<rect x="1280" y="830" width="480" height="58" rx="28" fill="#a855f7" fill-opacity="0.16" stroke="none"/>
<text x="1304" y="867" class="font server-title" text-anchor="start"><tspan x="1304" dy="0">clueroom-ops-01</tspan></text>
<text x="1304" y="918" class="font small" text-anchor="start"><tspan x="1304" dy="0">n8n · Loki · OPS_HEALTH · Slack routing ·</tspan><tspan x="1304" dy="20">Handoff reports</tspan></text>
<rect x="1330" y="930" width="190" height="105" rx="18" fill="#ffffff" fill-opacity="1" stroke="#d8e0ee" stroke-width="1.5" filter="url(#shadow)"/>
<circle cx="1366" cy="966" r="22" fill="#84cc16"/>
<text x="1366" y="973" class="font label" text-anchor="middle" fill="#fff"><tspan x="1366" dy="0">Lo</tspan></text>
<text x="1404" y="960" class="font box-title" text-anchor="start"><tspan x="1404" dy="0">Loki</tspan></text>
<text x="1404" y="985" class="font box-text" text-anchor="start"><tspan x="1404" dy="0">로그 저장/조회</tspan><tspan x="1404" dy="18">:3100 private</tspan></text>
<rect x="1530" y="930" width="190" height="105" rx="18" fill="#ffffff" fill-opacity="1" stroke="#d8e0ee" stroke-width="1.5" filter="url(#shadow)"/>
<circle cx="1566" cy="966" r="22" fill="#EA4B71"/>
<text x="1566" y="973" class="font label" text-anchor="middle" fill="#fff"><tspan x="1566" dy="0">n8n</tspan></text>
<text x="1604" y="960" class="font box-title" text-anchor="start"><tspan x="1604" dy="0">n8n</tspan></text>
<text x="1604" y="985" class="font box-text" text-anchor="start"><tspan x="1604" dy="0">Grafana webhook</tspan><tspan x="1604" dy="18">Slack router /</tspan><tspan x="1604" dy="18">reports</tspan></text>
<rect x="1330" y="1060" width="390" height="90" rx="18" fill="#ffffff" fill-opacity="1" stroke="#d8e0ee" stroke-width="1.5" filter="url(#shadow)"/>
<circle cx="1366" cy="1096" r="22" fill="#a855f7"/>
<text x="1366" y="1103" class="font label" text-anchor="middle" fill="#fff"><tspan x="1366" dy="0">OH</tspan></text>
<text x="1404" y="1090" class="font box-title" text-anchor="start"><tspan x="1404" dy="0">OPS_HEALTH</tspan></text>
<text x="1404" y="1115" class="font box-text" text-anchor="start"><tspan x="1404" dy="0">n8n=OK loki=OK disk/memory OK</tspan></text>
<rect x="1900" y="930" width="360" height="125" rx="18" fill="#ffffff" fill-opacity="1" stroke="#d8e0ee" stroke-width="1.5" filter="url(#shadow)"/>
<rect x="1914" y="960" width="44" height="12" rx="6" fill="#36C5F0"/>
<rect x="1930" y="944" width="12" height="44" rx="6" fill="#2EB67D"/>
<rect x="1914" y="944" width="12" height="28" rx="6" fill="#ECB22E"/>
<rect x="1946" y="960" width="12" height="28" rx="6" fill="#E01E5A"/>
<text x="1974" y="960" class="font box-title" text-anchor="start"><tspan x="1974" dy="0">Slack Alert Channel</tspan></text>
<text x="1974" y="985" class="font box-text" text-anchor="start"><tspan x="1974" dy="0">WARNING 일반 알림</tspan><tspan x="1974" dy="18">CRITICAL @channel</tspan><tspan x="1974" dy="18">Gemini 실패 시 fallback</tspan></text>
<rect x="1900" y="720" width="360" height="100" rx="18" fill="#ffffff" fill-opacity="1" stroke="#d8e0ee" stroke-width="1.5" filter="url(#shadow)"/>
<polygon points="1916,740 1934,730 1934,750 1916,760" fill="#7B42BC"/>
<polygon points="1938,728 1956,738 1956,758 1938,748" fill="#7B42BC" opacity="0.85"/>
<polygon points="1916,764 1934,754 1934,774 1916,784" fill="#7B42BC" opacity="0.65"/>
<text x="1974" y="750" class="font box-title" text-anchor="start"><tspan x="1974" dy="0">Terraform</tspan></text>
<text x="1974" y="775" class="font box-text" text-anchor="start"><tspan x="1974" dy="0">S3/IAM 관리 완료</tspan><tspan x="1974" dy="18">Scale-out 계획</tspan></text>
<line x1="340" y1="480" x2="470" y2="390" stroke="#334155" stroke-width="4" marker-end="url(#arrow)"/>
<rect x="325.0" y="417.0" width="160" height="30" rx="15" fill="#ffffff" fill-opacity="1" stroke="#e2e8f0" stroke-width="1"/>
<text x="405.0" y="440.0" class="font small" text-anchor="middle" fill="#475569"><tspan x="405.0" dy="0">HTTPS</tspan></text>
<line x1="760" y1="390" x2="820" y2="355" stroke="#334155" stroke-width="3" marker-end="url(#arrow)"/>
<line x1="1110" y1="355" x2="1330" y2="430" stroke="#334155" stroke-width="3" marker-end="url(#arrow)"/>
<rect x="1129.0" y="370.75" width="160" height="30" rx="15" fill="#ffffff" fill-opacity="1" stroke="#e2e8f0" stroke-width="1"/>
<text x="1209.0" y="393.75" class="font small" text-anchor="middle" fill="#475569"><tspan x="1209.0" dy="0">DB/Redis</tspan></text>
<line x1="1110" y1="355" x2="340" y2="650" stroke="#2563eb" stroke-width="2" stroke-dasharray="8 6" marker-end="url(#arrow-blue)"/>
<rect x="645.0" y="484.5" width="160" height="30" rx="15" fill="#ffffff" fill-opacity="1" stroke="#e2e8f0" stroke-width="1"/>
<text x="725.0" y="507.5" class="font small" text-anchor="middle" fill="#475569"><tspan x="725.0" dy="0">AI call</tspan></text>
<polyline points="965,410 965,600 340,660" fill="none" stroke="#2563eb" stroke-width="2" stroke-dasharray="8 6" marker-end="url(#arrow-blue)"/>
<rect x="545" y="617" width="190" height="30" rx="15" fill="#ffffff" fill-opacity="1" stroke="#e2e8f0" stroke-width="1"/>
<text x="640" y="640" class="font small" text-anchor="middle" fill="#475569"><tspan x="640" dy="0">DeepSeek API</tspan></text>
<line x1="1520" y1="720" x2="1900" y2="585" stroke="#ea580c" stroke-width="3" marker-end="url(#arrow-orange)"/>
<rect x="1630.0" y="634.5" width="160" height="30" rx="15" fill="#ffffff" fill-opacity="1" stroke="#e2e8f0" stroke-width="1"/>
<text x="1710.0" y="657.5" class="font small" text-anchor="middle" fill="#475569"><tspan x="1710.0" dy="0">S3 upload</tspan></text>
<line x1="1430" y1="485" x2="1430" y2="535" stroke="#16a34a" stroke-width="3" marker-end="url(#arrow-green)"/>
<polyline points="615,805 615,1010 1330,985" fill="none" stroke="#64748b" stroke-width="3" stroke-dasharray="6 6" marker-end="url(#arrow)"/>
<rect x="885" y="992" width="190" height="30" rx="15" fill="#ffffff" fill-opacity="1" stroke="#e2e8f0" stroke-width="1"/>
<text x="980" y="1015" class="font small" text-anchor="middle" fill="#475569"><tspan x="980" dy="0">logs</tspan></text>
<polyline points="965,640 1220,640 1220,980 1330,980" fill="none" stroke="#64748b" stroke-width="3" stroke-dasharray="6 6" marker-end="url(#arrow)"/>
<rect x="1095" y="747" width="190" height="30" rx="15" fill="#ffffff" fill-opacity="1" stroke="#e2e8f0" stroke-width="1"/>
<text x="1190" y="770" class="font small" text-anchor="middle" fill="#475569"><tspan x="1190" dy="0">dashboards / alert rules</tspan></text>
<line x1="1520" y1="985" x2="1530" y2="985" stroke="#334155" stroke-width="3" marker-end="url(#arrow)"/>
<line x1="1720" y1="985" x2="1900" y2="990" stroke="#334155" stroke-width="3" marker-end="url(#arrow)"/>
<rect x="1730.0" y="969.5" width="160" height="30" rx="15" fill="#ffffff" fill-opacity="1" stroke="#e2e8f0" stroke-width="1"/>
<text x="1810.0" y="992.5" class="font small" text-anchor="middle" fill="#475569"><tspan x="1810.0" dy="0">Slack</tspan></text>
<polyline points="1530,985 1800,900 1900,990" fill="none" stroke="#334155" stroke-width="2" stroke-dasharray="5 5" marker-end="url(#arrow)"/>
<polyline points="1525,590 1210,590 1210,955 1330,955" fill="none" stroke="#16a34a" stroke-width="2" stroke-dasharray="7 5" marker-end="url(#arrow-green)"/>
<rect x="1105" y="697" width="190" height="30" rx="15" fill="#ffffff" fill-opacity="1" stroke="#e2e8f0" stroke-width="1"/>
<text x="1200" y="720" class="font small" text-anchor="middle" fill="#475569"><tspan x="1200" dy="0">DATA/S3 health push</tspan></text>
<polyline points="1525,1105 1800,1105 1900,990" fill="none" stroke="#a855f7" stroke-width="2" stroke-dasharray="7 5" marker-end="url(#arrow)"/>
<rect x="1740" y="1092" width="190" height="30" rx="15" fill="#ffffff" fill-opacity="1" stroke="#e2e8f0" stroke-width="1"/>
<text x="1835" y="1115" class="font small" text-anchor="middle" fill="#475569"><tspan x="1835" dy="0">alert/report</tspan></text>
<rect x="80" y="1165" width="1020" height="110" rx="22" fill="#ffffff" fill-opacity="1" stroke="#cbd5e1" stroke-width="1.5" filter="url(#shadow)"/>
<text x="110" y="1200" class="font label" text-anchor="start"><tspan x="110" dy="0">Legend</tspan></text>
<line x1="205" y1="1195" x2="290" y2="1195" stroke="#334155" stroke-width="3" marker-end="url(#arrow)"/>
<text x="305" y="1201" class="font small" text-anchor="start"><tspan x="305" dy="0">사용자 트래픽 / API 요청</tspan></text>
<line x1="520" y1="1195" x2="605" y2="1195" stroke="#64748b" stroke-width="3" stroke-dasharray="6 6" marker-end="url(#arrow)"/>
<text x="620" y="1201" class="font small" text-anchor="start"><tspan x="620" dy="0">로그·메트릭·헬스체크 흐름</tspan></text>
<line x1="880" y1="1195" x2="965" y2="1195" stroke="#ea580c" stroke-width="3" marker-end="url(#arrow-orange)"/>
<text x="980" y="1201" class="font small" text-anchor="start"><tspan x="980" dy="0">백업 업로드 흐름</tspan></text>
<text x="110" y="1240" class="font small" text-anchor="start"><tspan x="110" dy="0">운영 기준: 장애 알림은 AI 없이 먼저 Slack 전송, Gemini는 보조 분석, Codex는 Handoff 기반 수동 심층 분석</tspan></text>
<text x="80" y="1310" class="font small" text-anchor="start" fill="#64748b"><tspan x="80" dy="0">Note: 공식 로고 파일이 아니라 발표용 로고형 배지와 브랜드 색상 기반 아이콘으로 구성한 이미지입니다.</tspan></text>
</svg>